PathFileType	4	(X/Y/Z)	..\data\2014001\dynamic\2014001_C5_01.trc
DataRate	CameraRate	NumFrames	NumMarkers	Units	OrigDataRate	OrigDataStartFrame	OrigNumFrames
100.000000	100.000000	4	52	mm	100.000000	0	125
Frame#	Time	L_IAS			L_IPS			R_IPS			R_IAS			L_FTC			L_FLE			L_FME			L_FAX			L_TTC			L_FAL			L_TAM			L_FCC			L_FM1			L_FM2			L_FM5			R_FTC			R_FLE			R_FME			R_FAX			R_TTC			R_FAL			R_TAM			R_FCC			R_FM1			R_FM2			R_FM5			CV7			TV10			SXS			SJN			L_SIA			L_SRS			L_SAA			L_SAE			L_HLE			L_HME			L_UOA			L_RSP			L_UHE			L_HM2			L_HM5			R_SIA			R_SRS			R_SAA			R_SAE			R_HLE			R_HME			R_UOA			R_RSP			R_UHE			R_HM2			R_HM5			
		X1	Y1	Z1	X2	Y2	Z2	X3	Y3	Z3	X4	Y4	Z4	X5	Y5	Z5	X6	Y6	Z6	X7	Y7	Z7	X8	Y8	Z8	X9	Y9	Z9	X10	Y10	Z10	X11	Y11	Z11	X12	Y12	Z12	X13	Y13	Z13	X14	Y14	Z14	X15	Y15	Z15	X16	Y16	Z16	X17	Y17	Z17	X18	Y18	Z18	X19	Y19	Z19	X20	Y20	Z20	X21	Y21	Z21	X22	Y22	Z22	X23	Y23	Z23	X24	Y24	Z24	X25	Y25	Z25	X26	Y26	Z26	X27	Y27	Z27	X28	Y28	Z28	X29	Y29	Z29	X30	Y30	Z30	X31	Y31	Z31	X32	Y32	Z32	X33	Y33	Z33	X34	Y34	Z34	X35	Y35	Z35	X36	Y36	Z36	X37	Y37	Z37	X38	Y38	Z38	X39	Y39	Z39	X40	Y40	Z40	X41	Y41	Z41	X42	Y42	Z42	X43	Y43	Z43	X44	Y44	Z44	X45	Y45	Z45	X46	Y46	Z46	X47	Y47	Z47	X48	Y48	Z48	X49	Y49	Z49	X50	Y50	Z50	X51	Y51	Z51	X52	Y52	Z52	

1	0	-370.7477722167969	826.6065673828127	-300.3096313476563	-561.9682006835939	866.375183105469	-284.9457397460938	-585.2392578125001	873.1355590820315	-202.2013702392579	-443.5689086914064	832.8274536132815	-72.76902008056642	-424.2526245117189	742.2106933593751	-383.9286499023438	-256.4624328613282	438.0312805175782	-351.2987060546876	-226.8500671386719	445.8713378906251	-235.4294738769532	-242.9236145019532	376.6824951171876	-352.7517089843751	-173.3969879150391	395.7665100097657	-313.2053527832032	-74.43777465820314	92.05563354492189	-313.1622619628907	-50.72367095947267	127.2799377441407	-230.6666107177735	-78.43785095214845	35.80944442749024	-260.6064758300782	62.07568740844728	155.6446685791016	-260.0654907226563	55.94789505004884	156.3956146240235	-318.4504394531251	32.22445678710938	108.1607894897461	-349.4067077636719	-573.4358520507814	759.4110717773439	-52.44221115112306	-679.5814819335939	433.4509887695314	-94.68972778320314	-640.6453857421876	407.8873291015626	-205.1341705322266	-723.1361083984376	378.9988403320313	-98.20870208740237	-657.9580078125001	343.0910034179688	-132.1179504394532	-890.5502929687502	112.5009689331055	-166.8506622314453	-830.627868652344	108.1828231811524	-241.0639953613282	-930.4986572265627	91.12755584716798	-231.896957397461	-761.8217163085939	13.90309047698975	-216.8047943115235	-767.4953613281251	24.32966804504395	-154.778076171875	-836.2803955078127	19.41658592224121	-121.4569549560547	-583.2805786132814	1329.212280273438	-211.9283599853516	-619.8342285156251	1087.030029296875	-222.408676147461	-381.5164184570313	1126.442016601563	-210.8754119873047	-441.7921447753907	1282.250854492188	-217.3714599609376	-625.6181640625001	1134.954345703125	-302.9675598144532	-616.2554321289064	1266.550659179688	-299.3629760742188	-545.7384643554689	1278.536010742188	-402.9000244140626	-506.2882385253907	1288.489135742188	-397.4624328613282	-620.7944946289064	1048.135986328125	-496.0794067382814	-650.9893798828126	1015.965698242188	-421.577606201172	-656.7085571289064	1034.510009765625	-467.2275390625001	-690.7539672851564	810.9509887695315	-527.8771972656251	-726.6610717773439	858.0896606445315	-584.1075439453126	-730.4409790039064	733.0503540039064	-554.6355590820314	-784.6690673828127	809.423522949219	-601.7217407226564	-616.9922485351564	1132.833862304688	-92.72336578369142	-615.5588378906251	1258.473876953125	-119.0031661987305	-530.4977416992189	1273.4052734375	-18.22941017150879	-485.0041503906251	1286.844482421875	-36.38773727416993	-404.0547180175782	1004.389770507813	63.44572067260744	-428.4790954589845	964.2698364257815	-5.798803806304933	-411.2928771972657	956.636413574219	39.78734970092774	-201.2752838134766	999.0999145507815	-62.75478744506837	-189.360092163086	952.3718872070315	2.528913736343384	-113.0643920898438	1008.191040039063	-78.71733856201173	-121.9927444458008	919.1033325195315	-28.69099235534669	
2	0.01	-344.7816162109376	824.7789306640627	-298.9414978027344	-536.4815063476564	863.8609619140627	-285.8910827636719	-560.1364135742189	870.611267089844	-203.3408508300782	-420.2898864746095	830.097595214844	-71.95005798339845	-396.4862365722657	740.7460327148439	-383.6320190429688	-228.0744934082032	437.7272338867189	-350.0448608398438	-201.0227355957032	444.8433532714845	-233.7461547851563	-215.0417480468751	376.0925598144532	-351.8373107910157	-146.4019470214844	394.5297241210939	-311.0153503417969	-50.93490982055665	90.9373245239258	-312.2829895019532	-27.84136390686036	124.9207839965821	-229.1634216308594	-56.53494262695314	34.96984481811524	-260.0940856933594	85.42740631103517	151.1751556396485	-257.3587951660157	80.04931640625001	152.1192321777344	-315.7561340332032	55.82118225097658	104.8423614501953	-347.1640930175782	-551.2565917968751	758.0816650390626	-54.12292861938478	-664.5123291015626	435.3627014160157	-93.7989959716797	-623.3587646484376	406.5844726562501	-202.7398834228516	-709.8481445312501	382.3418579101563	-97.52126312255862	-644.4705810546876	343.5042724609376	-128.9244232177735	-884.4151000976565	119.864372253418	-166.6651153564453	-823.1426391601565	112.9375762939453	-239.1971740722657	-922.6423339843752	101.4350051879883	-232.4559783935547	-762.4422607421876	13.80515766143799	-217.1231536865235	-769.0717773437502	23.88394165039063	-155.4983978271485	-837.2241210937502	21.54121780395508	-122.7858276367188	-560.2495117187501	1326.002685546875	-213.4930725097657	-595.4535522460939	1083.567504882813	-223.4968872070313	-357.2177734375001	1124.441284179688	-211.8745574951172	-418.3267517089845	1279.787719726563	-218.6457672119141	-601.2918090820314	1131.586791992188	-303.8912963867188	-592.6213378906251	1263.153930664063	-300.6805114746094	-522.3756103515626	1275.978881835938	-403.9994201660157	-483.0234375000001	1285.94775390625	-398.833221435547	-599.3699340820314	1047.114990234375	-497.7829895019532	-629.5010375976564	1014.9365234375	-423.2735900878907	-635.1914672851564	1033.7451171875	-468.8488159179689	-671.6643066406251	810.9109497070315	-530.3977050781251	-707.6732788085939	858.704528808594	-586.0601806640626	-712.5322265625001	733.5452270507814	-557.3382568359376	-766.5540161132814	810.8245849609377	-603.2666625976564	-593.4443969726564	1129.693359375	-94.0606155395508	-592.5411987304689	1255.451293945313	-120.5533828735352	-507.5418395996095	1270.783081054688	-19.72128295898438	-461.9751892089845	1284.43701171875	-37.97568511962891	-379.8126525878907	1003.091125488281	63.03843688964845	-404.2713928222657	962.3235473632815	-6.071351051330568	-386.7195129394532	954.9531250000002	39.48210906982423	-178.9864044189453	1001.238891601563	-65.54740142822267	-164.843505859375	955.3601074218752	-0.07790609449148179	-91.52042388916017	1013.389404296875	-82.58992767333986	-96.78089904785159	923.8023071289065	-32.55230712890626	
3	0.02	-318.7013854980469	823.4717407226565	-297.9887084960938	-510.8292236328126	861.799743652344	-286.3668212890626	-534.6382446289064	868.3902587890627	-203.8864288330079	-396.0382080078126	827.5124511718752	-71.44070434570314	-368.8959350585938	739.8056640625001	-383.4748229980469	-199.8144226074219	437.6954040527345	-348.9470520019532	-175.3342895507813	444.0117797851564	-232.3841094970704	-187.7440795898438	375.5831909179688	-351.0456542968751	-119.9794845581055	392.7528686523439	-308.8201293945313	-31.7582187652588	88.52178955078126	-311.1120910644532	-9.144227981567385	120.7693634033203	-227.3099212646485	-39.9453239440918	33.18541717529298	-259.3909301757813	104.8262176513672	143.2396545410157	-254.2194061279297	100.2854461669922	144.498519897461	-312.6411132812501	74.81773376464845	98.73037719726565	-344.6359558105469	-528.0173950195314	756.6504516601564	-55.42398071289064	-647.7247924804689	436.8544006347657	-92.39199829101564	-604.5382690429689	404.8487243652345	-199.8635711669922	-694.8340454101564	385.3605041503907	-96.317985534668	-629.4802856445314	343.5796813964844	-125.2305221557617	-876.705993652344	127.8052444458008	-166.2791595458985	-814.316345214844	118.0196685791016	-237.0504455566407	-912.8875122070315	112.5902557373047	-232.8480072021485	-763.0482177734376	14.18615436553955	-217.3995208740235	-770.740661621094	23.81768989562989	-156.2296905517578	-837.7480468750002	24.73080635070801	-124.1738739013672	-537.0198974609376	1323.022583007813	-215.2850341796876	-570.7853393554689	1080.34716796875	-224.5674896240235	-332.6804504394532	1122.814453125	-213.056137084961	-394.6886596679689	1277.647827148438	-220.0368652343751	-576.6702880859376	1128.527587890625	-305.0539550781251	-568.7265625000001	1260.02001953125	-302.2542724609376	-498.638885498047	1273.647705078125	-405.326141357422	-459.4007873535157	1283.653686523438	-400.3538208007814	-577.0349121093751	1045.969848632813	-499.5512084960939	-607.1540527343751	1013.817260742188	-425.0439453125001	-612.7921752929689	1032.784912109375	-470.5774536132814	-650.8706054687501	810.4892578125002	-532.7144775390626	-687.0209350585939	858.7128906250002	-587.9535522460939	-692.5025024414064	733.5067138671876	-559.6946411132814	-746.5120849609376	811.2897949218752	-604.7729492187501	-569.7127685546876	1126.773559570313	-95.59576416015626	-569.4036254882814	1252.651000976563	-122.3927078247071	-484.6197204589845	1268.465698242188	-21.46793746948243	-438.9492492675782	1282.33251953125	-39.71569061279298	-356.3445739746094	1001.822021484375	62.49462509155275	-380.8671569824219	960.5477294921877	-6.512614250183107	-363.0385131835938	953.3499145507815	39.04552459716798	-157.1664123535157	1002.407775878906	-67.97386932373048	-141.3620147705078	957.2628173828127	-2.366101026535035	-70.44869995117189	1016.833862304688	-85.96453094482423	-72.88626861572267	926.940368652344	-35.90564727783204	
4	0.03	-292.6402282714844	822.6350097656252	-297.4912109375001	-485.1632385253907	860.1809692382815	-286.4192504882813	-508.9104003906251	866.424499511719	-203.8719482421876	-370.9228515625001	825.0403442382815	-71.2812957763672	-341.6765747070313	739.3220214843751	-383.4913330078126	-171.9093170166016	437.8265380859376	-348.0083923339844	-149.9466552734375	443.3286437988282	-231.3346252441407	-161.1264801025391	375.1193847656251	-350.3622436523438	-94.21041107177736	390.5260009765626	-306.6502685546876	-16.34300422668457	85.03115844726564	-309.7066345214844	5.881743907928468	115.1607284545899	-225.1910705566407	-27.98125457763673	30.67451667785645	-258.5482177734376	120.7372055053711	132.4013366699219	-250.7338104248047	117.1311492919922	134.064682006836	-309.2103881835938	89.76704406738283	90.30306243896486	-341.9432983398438	-503.7880249023439	755.0061035156251	-56.32532501220705	-628.9574584960939	437.6647033691407	-90.44860076904298	-584.0006713867189	402.548065185547	-196.5479583740235	-677.7869873046876	387.7794494628907	-94.5615692138672	-612.7315673828126	343.1209716796876	-121.1311340332032	-867.1484375000002	136.2833099365235	-165.7100219726563	-803.9465942382815	123.3912887573242	-234.7354125976563	-901.0364990234377	124.5131378173828	-233.0704650878907	-763.3004760742189	15.15441513061524	-217.5609436035157	-772.128601074219	24.27977180480958	-156.868148803711	-837.4543457031252	29.15762329101563	-125.5391235351563	-513.5923461914064	1320.3017578125	-217.2816925048829	-545.8825073242189	1077.403564453125	-225.6419830322266	-307.9583740234376	1121.519653320313	-214.3484039306641	-370.8887939453126	1275.824829101563	-221.5019836425782	-551.7694702148439	1125.777221679688	-306.4734191894532	-544.5674438476564	1257.169189453125	-304.0841369628907	-474.4943847656251	1271.51708984375	-406.8761596679689	-435.3806152343751	1281.586059570313	-402.001678466797	-553.7536010742189	1044.648803710938	-501.3560791015626	-583.9240112304689	1012.558166503906	-426.8581542968751	-589.4812622070314	1031.590698242188	-472.3856811523439	-628.3994140625001	809.6265869140627	-534.8263549804689	-664.7119140625001	858.0732421875002	-589.7940063476564	-670.4081420898439	732.8742675781251	-561.7340698242189	-724.5623779296876	810.8027954101565	-606.2884521484376	-545.8316650390626	1124.102661132813	-97.32430267333987	-546.1510009765626	1250.107177734375	-124.4963989257813	-461.7378845214845	1266.463500976563	-23.42509269714356	-415.9322814941407	1280.533081054688	-41.56389236450196	-333.6806945800782	1000.556945800781	61.85045623779298	-358.3132019042969	958.9174804687502	-7.072785377502443	-340.2782897949219	951.8041992187502	38.5241928100586	-135.7828826904297	1002.587951660156	-70.0187454223633	-118.8744506835938	958.0191650390627	-4.314978599548341	-49.74707794189455	1018.470886230469	-88.84902191162111	-50.23829650878908	928.4270629882815	-38.72132873535157	
